<svg id="Layer_1" data-name="Layer 1" xmlns="http://www.w3.org/2000/svg" viewBox="0 0 583.06 583.06"><path d="M343.16,306.42l-14.35-10-36,25.22a5.92,5.92,0,0,1-6.84,0l-34.08-23.81-12.37,8.63a5.84,5.84,0,0,0,0,9.61l48.39,33.84a5.89,5.89,0,0,0,6.84,0L343.12,316A5.82,5.82,0,0,0,343.16,306.42Z"/><path d="M287.85,300.49l-48.31-33.77a5.84,5.84,0,0,1,0-9.61l48.31-33.77a6,6,0,0,1,7,0L343,257a6,6,0,0,1,0,9.88l-48.11,33.65A6.17,6.17,0,0,1,287.85,300.49Z"/><path d="M378,230.71,295.68,182.9a8.19,8.19,0,0,0-8.26,0l-82.31,47.81a8.13,8.13,0,0,0-4,7v97.78a8.23,8.23,0,0,0,4,7l82.31,47.77a8.23,8.23,0,0,0,8.22,0L378,342.5a8.12,8.12,0,0,0,4-7V237.7A7.88,7.88,0,0,0,378,230.71Zm-12.34,100.1-74.12,43.07-74.13-43.07V242.36l74.13-43,74.12,43Z"/></svg>